#!OML:ASF E:\Steps\Project 1\Capture day 1\Session 2\Subject.ASF
:FULLY-SPECIFIED
:DEGREES
928
root -1.15734 17.9884 20.9937 -154.908 -1.99355 178.39
lowerback -24.9602 -1.74577 -7.33681
upperback -0.704342 -0.583256 0.0550454
thorax 13.3052 -0.900924 4.03962
lowerneck -0.391026 -0.710813 -2.01964
upperneck 21.2847 -3.55435 3.94373
head 6.62493 -2.30214 1.31915
rclavicle -9.24349e-015 -1.35174e-014
rhumerus -40.2906 -19.767 -74.2879
rradius 32.1356
rwrist 1.61105
rhand -9.69419 -58.2619
rfingers 7.12502
rthumb 16.2781 -87.5986
lclavicle -9.24349e-015 -1.35174e-014
lhumerus -29.4628 2.90895 81.2171
lradius 26.623
lwrist -2.29638
lhand -23.0446 -13.6415
lfingers 7.12502
lthumb 3.40001 16.3111
rfemur -23.8768 6.1638 19.2405
rtibia 8.20921
rfoot -19.0855 -4.48256
rtoes -13.7938
lfemur -24.4963 -9.03852 -21.2197
ltibia 9.60254
lfoot -7.01877 -2.96023
ltoes -13.7441
929
root -1.16071 17.9863 20.9959 -154.819 -1.78251 178.37
lowerback -25.0136 -1.79397 -7.3769
upperback -0.738203 -0.638773 0.0520643
thorax 13.3021 -0.930558 4.03859
lowerneck -0.476654 -0.921734 -1.91922
upperneck 21.7365 -3.88748 3.5835
head 6.78994 -2.50327 1.16004
rclavicle -9.0447e-015 6.55989e-015
rhumerus -40.4477 -19.7249 -74.3666
rradius 32.2685
rwrist 1.36467
rhand -10.0305 -58.2466
rfingers 7.12502
rthumb 15.9543 -87.6095
lclavicle -9.0447e-015 6.55989e-015
lhumerus -29.5473 2.89711 81.2169
lradius 26.4959
lwrist -2.55804
lhand -23.5936 -14.0533
lfingers 7.12502
lthumb 2.86984 15.9071
rfemur -23.9741 6.09516 19.1968
rtibia 8.12495
rfoot -18.9829 -4.32868
rtoes -14.5207
lfemur -24.5249 -8.87608 -21.3038
ltibia 9.47137
lfoot -6.85787 -2.93051
ltoes -12.624
930
root -1.1634 17.9845 20.9984 -154.691 -1.6275 178.375
lowerback -25.0921 -1.87206 -7.40641
upperback -0.770674 -0.73955 0.0942638
thorax 13.321 -0.982398 4.06711
lowerneck -0.4547 -1.18084 -1.87791
upperneck 22.0138 -4.26207 3.23344
head 6.88091 -2.72512 1.01342
rclavicle 4.22417e-015 -5.36719e-015
rhumerus -40.4166 -19.659 -74.3912
rradius 32.1608
rwrist 1.27641
rhand -10.2035 -58.2904
rfingers 7.12502
rthumb 15.7877 -87.6666
lclavicle 4.22417e-015 -5.36719e-015
lhumerus -29.5141 3.05222 81.2226
lradius 26.2864
lwrist -2.6842
lhand -23.6978 -14.2052
lfingers 7.12502
lthumb 2.76919 15.7566
rfemur -24.1283 6.16666 19.1523
rtibia 8.09678
rfoot -19.0087 -4.34266
rtoes -15.2735
lfemur -24.6231 -8.80317 -21.3271
ltibia 9.39501
lfoot -6.83412 -2.86354
ltoes -12.6962
931
root -1.16312 17.9872 20.9994 -154.702 -1.4976 178.407
lowerback -25.0225 -1.95249 -7.46752
upperback -0.759422 -0.840524 0.17784
thorax 13.3115 -1.03399 4.16271
lowerneck -0.6801 -1.38841 -1.85886
upperneck 22.7331 -4.66393 2.99165
head 7.16231 -2.96769 0.891956
rclavicle 9.93923e-016 1.31198e-014
rhumerus -40.3552 -19.6485 -74.3444
rradius 32.0616
rwrist 1.32206
rhand -10.1407 -58.0545
rfingers 7.12502
rthumb 15.8481 -87.4259
lclavicle 9.93923e-016 1.31198e-014
lhumerus -29.5277 3.2113 81.259
lradius 26.2346
lwrist -2.67256
lhand -23.493 -13.8837
lfingers 7.12502
lthumb 2.96701 16.0754
rfemur -24.1384 6.25972 19.1541
rtibia 8.08404
rfoot -19.0395 -4.27741
rtoes -15.2061
lfemur -24.5827 -8.76015 -21.3038
ltibia 9.35729
lfoot -6.96025 -2.79851
ltoes -13.2326
932
root -1.16458 17.9886 20.9987 -154.727 -1.33402 178.417
lowerback -25.0031 -2.02374 -7.51788
upperback -0.718995 -0.921613 0.233544
thorax 13.3616 -1.07695 4.22685
lowerneck -0.747857 -1.44824 -1.84094
upperneck 23.1133 -4.80384 2.80121
head 7.2989 -3.06937 0.81016
rclavicle 4.27387e-015 5.36719e-015
rhumerus -40.2857 -19.6982 -74.3319
rradius 31.996
rwrist 1.37142
rhand -9.88692 -57.7022
rfingers 7.12502
rthumb 16.0925 -87.054
lclavicle 4.27387e-015 5.36719e-015
lhumerus -29.5703 3.36261 81.2349
lradius 26.2352
lwrist -2.72905
lhand -23.1996 -13.5742
lfingers 7.12502
lthumb 3.25039 16.3808
rfemur -24.136 6.38972 19.1071
rtibia 8.09874
rfoot -19.0636 -4.22711
rtoes -14.9052
lfemur -24.5112 -8.73123 -21.3134
ltibia 9.30524
lfoot -6.99106 -2.67371
ltoes -12.9175
933
root -1.16859 17.9869 20.9945 -154.765 -1.20101 178.355
lowerback -25.0189 -2.08628 -7.5442
upperback -0.700544 -0.991172 0.211758
thorax 13.4017 -1.11113 4.19119
lowerneck -0.580144 -1.45725 -1.62701
upperneck 23.3287 -4.85008 2.49119
head 7.3303 -3.12249 0.668686
rclavicle -1.3418e-015 -8.34896e-015
rhumerus -40.3219 -19.7157 -74.39
rradius 31.883
rwrist 1.21456
rhand -10.069 -57.0517
rfingers 7.12502
rthumb 15.9172 -86.4175
lclavicle -1.3418e-015 -8.34896e-015
lhumerus -29.7421 3.34415 81.1487
lradius 26.2668
lwrist -2.73294
lhand -22.8845 -13.4085
lfingers 7.12502
lthumb 3.55466 16.5416
rfemur -24.0553 6.47001 18.9897
rtibia 8.05427
rfoot -19.0769 -4.22013
rtoes -14.7565
lfemur -24.371 -8.72606 -21.4389
ltibia 9.19265
lfoot -6.97198 -2.61916
ltoes -13.0842
934
root -1.17362 17.9888 20.9895 -154.893 -1.05805 178.232
lowerback -24.897 -2.14798 -7.58919
upperback -0.682354 -1.06116 0.169206
thorax 13.3652 -1.14208 4.14336
lowerneck -0.471081 -4.21629 -1.53455
upperneck 23.5349 -3.87338 1.33778
head 7.3393 -1.06898 0.554763
rclavicle -2.78299e-015 -1.11319e-014
rhumerus -40.4616 -19.7762 -74.3666
rradius 31.9687
rwrist 1.6988
rhand -9.5048 -57.8857
rfingers 7.12502
rthumb 16.4605 -87.2073
lclavicle -2.78299e-015 -1.11319e-014
lhumerus -29.9201 3.36086 81.0871
lradius 26.2011
lwrist -2.8062
lhand -22.8993 -13.453
lfingers 7.12502
lthumb 3.54036 16.4974
rfemur -23.8218 6.50329 18.8211
rtibia 7.90837
rfoot -19.0042 -4.16751
rtoes -14.5906
lfemur -24.1036 -8.7294 -21.6647
ltibia 9.04122
lfoot -6.97797 -2.61748
ltoes -12.9646
935
root -1.17824 17.9921 20.9886 -154.946 -0.845229 178.069
lowerback -24.7932 -2.21253 -7.69132
upperback -0.670955 -1.12065 0.139505
thorax 13.3306 -1.17307 4.14702
lowerneck -0.502671 -4.46083 -1.44552
upperneck 23.6701 -4.186 1.18103
head 7.3892 -1.22162 0.467744
rclavicle -3.32964e-015 -4.37326e-015
rhumerus -40.4885 -19.7036 -74.4712
rradius 32.0092
rwrist 1.55095
rhand -10.0885 -58.1513
rfingers 7.12502
rthumb 15.8984 -87.5187
lclavicle -3.32964e-015 -4.37326e-015
lhumerus -29.9392 3.58468 81.0237
lradius 25.9694
lwrist -3.28339
lhand -23.14 -13.5247
lfingers 7.12502
lthumb 3.30789 16.4293
rfemur -23.7589 6.42368 18.5974
rtibia 7.84718
rfoot -18.9057 -3.98238
rtoes -14.721
lfemur -23.9543 -8.77127 -21.9166
ltibia 8.92731
lfoot -6.95218 -2.45033
ltoes -13.0126
936
root -1.18014 17.9957 20.9898 -154.959 -0.705279 178.106
lowerback -24.6455 -2.21156 -7.61372
upperback -0.701375 -1.15751 0.148809
thorax 13.2162 -1.18052 4.10157
lowerneck -0.381585 -4.44209 -1.44087
upperneck 23.5979 -4.14407 1.08308
head 7.34113 -1.21209 0.439457
rclavicle -1.3418e-015 -1.13307e-014
rhumerus -40.5092 -19.8628 -74.4399
rradius 31.8961
rwrist 1.66335
rhand -10.3901 -58.2966
rfingers 7.12502
rthumb 15.6079 -87.6869
lclavicle -1.3418e-015 -1.13307e-014
lhumerus -29.9459 3.70527 80.9785
lradius 25.7858
lwrist -3.48589
lhand -23.3274 -13.5977
lfingers 7.12502
lthumb 3.12689 16.3591
rfemur -23.8006 6.44121 18.6087
rtibia 7.90608
rfoot -18.8613 -3.87564
rtoes -14.7556
lfemur -23.9058 -8.76534 -21.8827
ltibia 8.86188
lfoot -6.90639 -2.27442
ltoes -13.2679
